<svg id="Layer_1" height="300" viewBox="0 0 512 512" width="300" xmlns="http://www.w3.org/2000/svg" data-name="Layer 1" version="1.1" xmlns:xlink="http://www.w3.org/1999/xlink" xmlns:svgjs="http://svgjs.dev/svgjs"><g width="100%" height="100%" transform="matrix(1,0,0,1,0,0)"><path d="m510.456 196.038a28.636 28.636 0 0 0 -25.076-19.738l-140.634-11.95a3.34 3.34 0 0 1 -3.059-2.184l-58.9-133.814a28.642 28.642 0 0 0 -26.559-17.332h-.228a28.639 28.639 0 0 0 -26.524 17.755l-54.824 130.062a3.342 3.342 0 0 1 -3.025 2.232l-145.463 14.66a29.029 29.029 0 0 0 -16.077 50.838l106.753 92.333a3.344 3.344 0 0 1 1.19 3.567l-31.007 142.868a29.027 29.027 0 0 0 43.38 31l120.8-73a3.347 3.347 0 0 1 3.763-.03l126.294 73.64a28.644 28.644 0 0 0 31.873-1.726 28.639 28.639 0 0 0 11.02-29.951l-32.098-137.439a3.341 3.341 0 0 1 1.134-3.585l109.068-97.364a28.639 28.639 0 0 0 8.199-30.842zm-25.08 11.937-109.063 97.359a28.639 28.639 0 0 0 -8.941 28.257l32.1 137.447a3.683 3.683 0 0 1 -5.443 4.018l-126.3-73.641a28.649 28.649 0 0 0 -29.635.231l-120.8 73a3.682 3.682 0 0 1 -5.5-3.932l31.006-142.875a28.646 28.646 0 0 0 -9.379-28.112l-106.757-92.327a3.684 3.684 0 0 1 2.043-6.448l145.465-14.661a28.642 28.642 0 0 0 23.837-17.606l54.821-130.065a3.42 3.42 0 0 1 3.361-2.254h.039a3.422 3.422 0 0 1 3.365 2.2l58.893 133.811a28.642 28.642 0 0 0 24.11 17.231l140.637 11.949a3.684 3.684 0 0 1 2.141 6.417z" fill="#ffffff" fill-opacity="1" data-original-color="#000000ff" stroke="none" stroke-opacity="1"/></g></svg>