<svg height="512" viewBox="0 0 32 32" width="512" xmlns="http://www.w3.org/2000/svg"><g id="THB"><path d="m16 2.5v1a12.5 12.5 0 0 1 0 25v1a13.5 13.5 0 0 0 0-27z" fill="#ffc900"/><g fill="#ffd900"><path d="m16.512 21.5a2.78 2.78 0 0 0 2.988-2.5 2.782 2.782 0 0 0 -3-2.5z"/><path d="m16.482 8v1.5h.018a3.78 3.78 0 0 1 4 3.5 3.449 3.449 0 0 1 -1.941 3 3.449 3.449 0 0 1 1.941 3 3.777 3.777 0 0 1 -3.985 3.5v1.5a.5.5 0 0 1 -.5.5c-.007 0-.012 0-.019 0v3a11.5 11.5 0 0 0 0-23v3a.5.5 0 0 1 .486.5z"/><path d="m16.5 15.5a2.782 2.782 0 0 0 3-2.5 2.782 2.782 0 0 0 -3-2.5h-.012l.011 5z"/></g><path d="m3.5 16a12.506 12.506 0 0 1 12.5-12.5v-1a13.5 13.5 0 0 0 0 27v-1a12.506 12.506 0 0 1 -12.5-12.5z" fill="#efbf08"/><path d="m13.517 16.5.013 5h1.982l-.011-5z" fill="#f6d200"/><path d="m16 27.5v-3a.5.5 0 0 1 -.482-.5v-1.5h-2.487a.5.5 0 0 1 -.5-.5l-.031-12a.5.5 0 0 1 .5-.5h2.486v-1.5a.5.5 0 0 1 .5-.5h.019v-3a11.5 11.5 0 0 0 0 23z" fill="#f6d200"/><path d="m15.488 10.5h-1.987l.013 5h1.985z" fill="#f6d200"/><path d="m16 1.5a14.5 14.5 0 1 0 14.5 14.5 14.507 14.507 0 0 0 -14.5-14.5zm0 28a13.5 13.5 0 1 1 13.5-13.5 13.506 13.506 0 0 1 -13.5 13.5z"/><path d="m3.5 16a12.5 12.5 0 1 0 12.5-12.5 12.506 12.506 0 0 0 -12.5 12.5zm12.5-11.5a11.5 11.5 0 1 1 -11.5 11.5 11.505 11.505 0 0 1 11.5-11.5z"/><path d="m16.518 24v-1.5a3.777 3.777 0 0 0 3.982-3.5 3.449 3.449 0 0 0 -1.941-3 3.449 3.449 0 0 0 1.941-3 3.78 3.78 0 0 0 -4-3.5h-.015v-1.5a.5.5 0 0 0 -.485-.5c-.007 0-.012 0-.019 0a.5.5 0 0 0 -.5.5v1.5h-2.481a.5.5 0 0 0 -.5.5l.031 12a.5.5 0 0 0 .5.5h2.484v1.5a.5.5 0 0 0 .482.5h.019a.5.5 0 0 0 .502-.5zm2.982-5a2.78 2.78 0 0 1 -2.988 2.5l-.011-5a2.782 2.782 0 0 1 2.999 2.5zm-3-8.5a2.782 2.782 0 0 1 3 2.5 2.782 2.782 0 0 1 -3 2.5l-.011-5zm-3 0h1.987l.011 5h-1.984zm.029 11-.013-5h1.984l.011 5z"/></g></svg>