<svg id="Layer_2" viewBox="0 0 512 512" xmlns="http://www.w3.org/2000/svg" data-name="Layer 2"><g id="Layer_1-2" data-name="Layer 1"><g id="Bitcoin"><g><circle cx="256" cy="256" fill="#f49638" r="256"/><path d="m256 0c-141.38 0-256 114.62-256 256s114.62 256 256 256 256-114.62 256-256-114.62-256-256-256zm0 465.48c-115.69 0-209.48-93.79-209.48-209.48s93.79-209.48 209.48-209.48 209.48 93.79 209.48 209.48-93.79 209.48-209.48 209.48z" fill="#ffbc50"/></g><path d="m255.41 363.04h-23.6v35.82c0 2.12-1.2 3.54-3.6 4.27-2.4.72-6.44 1.09-12.13 1.09s-9.68-.36-11.97-1.09-3.43-2.15-3.43-4.27v-35.82h-13.56c-4.02 0-7.2-1.2-9.54-3.6s-3.51-5.83-3.51-10.29v-188.81c0-4.46 1.17-7.89 3.51-10.29s5.52-3.6 9.54-3.6h13.56v-33.31c0-2.01 1.17-3.4 3.51-4.18s6.36-1.17 12.05-1.17 9.71.39 12.05 1.17 3.51 2.18 3.51 4.18v33.31h23.6v-33.31c0-2.01 1.2-3.4 3.6-4.18s6.45-1.17 12.14-1.17 9.68.39 11.97 1.17 3.43 2.18 3.43 4.18v36.82c9.37 2.12 17.24 5.55 23.6 10.29s11.07 10.6 14.14 17.57 4.6 14.87 4.6 23.68c0 10.71-2.76 20.09-8.29 28.12-5.52 8.03-13.14 13.78-22.85 17.24 8.15 1.79 15.32 5.1 21.51 9.96 6.19 4.85 10.85 10.8 13.98 17.83 3.12 7.03 4.69 14.84 4.69 23.43 0 15.96-4.41 29.12-13.22 39.5-8.82 10.38-21.54 17.52-38.16 21.42v39.84c0 2.12-1.17 3.54-3.52 4.27-2.34.72-6.36 1.09-12.05 1.09s-9.71-.36-12.05-1.09-3.51-2.15-3.51-4.27v-35.82zm-38.16-127.37h35.15c7.59 0 13.7-1.14 18.33-3.43s8.15-5.61 10.55-9.96 3.6-9.37 3.6-15.06c0-6.14-1.2-11.3-3.6-15.48s-5.97-7.34-10.71-9.46-11.08-3.18-19-3.18h-34.31v56.57zm0 94.07h37.32c8.7 0 15.76-1.25 21.17-3.77 5.41-2.51 9.51-6.05 12.3-10.63 2.79-4.57 4.19-9.99 4.19-16.24 0-6.81-1.48-12.52-4.44-17.16-2.96-4.63-7.34-8.14-13.14-10.55-5.8-2.4-13.45-3.6-22.93-3.6h-34.48v61.93z" fill="#fff"/></g></g></svg>