<svg height="512" viewBox="0 0 64 64" width="512" xmlns="http://www.w3.org/2000/svg"><g id="Layer_46" data-name="Layer 46"><circle cx="32" cy="32" fill="#ffda44" r="29"/><circle cx="32" cy="32" fill="#ebbf00" r="25"/><path d="m32.145 3a29.023 29.023 0 0 1 .69 4.017 25 25 0 1 1 -24.911 31.712 29.35 29.35 0 0 1 -3.924.271c-.049 0-.1 0-.145 0a29 29 0 1 0 28.29-36z" fill="#ffcd00"/><path d="m32 57a25 25 0 0 0 .835-49.979 29.013 29.013 0 0 1 .165 2.979 29 29 0 0 1 -25.076 28.729 25 25 0 0 0 24.076 18.271z" fill="#ddb200"/><path d="m31.62 18h-7.62v12h-4a2 2 0 0 0 0 4h4v12h8a14 14 0 0 0 13.965-15 14.252 14.252 0 0 0 -14.345-13zm10.356 14.693a10.239 10.239 0 0 1 -10.334 9.307h-3.642v-8h4a2 2 0 0 0 0-4h-4v-8h4a10.015 10.015 0 0 1 9.976 10.693z" fill="#f1f2f2"/><g fill="#231f20"><path d="m32 62a30 30 0 1 1 30-30 30.034 30.034 0 0 1 -30 30zm0-58a28 28 0 1 0 28 28 28.032 28.032 0 0 0 -28-28z"/><path d="m32 58a26 26 0 1 1 26-26 26.03 26.03 0 0 1 -26 26zm0-50a24 24 0 1 0 24 24 24.028 24.028 0 0 0 -24-24z"/><path d="m32 47h-8a1 1 0 0 1 -1-1v-11h-3a3 3 0 0 1 0-6h3v-11a1 1 0 0 1 1-1h7.62a15.244 15.244 0 0 1 15.342 13.928 15 15 0 0 1 -14.962 16.072zm-7-2h7a13 13 0 0 0 12.967-13.932 13.238 13.238 0 0 0 -13.347-12.068h-6.62v11a1 1 0 0 1 -1 1h-4a1 1 0 0 0 0 2h4a1 1 0 0 1 1 1zm6.642-2h-3.642a1 1 0 0 1 -1-1v-8a1 1 0 0 1 1-1h4a1 1 0 0 0 0-2h-4a1 1 0 0 1 -1-1v-8a1 1 0 0 1 1-1h4a11.038 11.038 0 0 1 8.035 3.5 10.9 10.9 0 0 1 2.939 8.263 11.221 11.221 0 0 1 -11.332 10.237zm-2.642-2h2.642a9.217 9.217 0 0 0 9.337-8.375 8.92 8.92 0 0 0 -2.405-6.762 9.03 9.03 0 0 0 -6.574-2.863h-3v6h3a3 3 0 0 1 0 6h-3z"/></g></g></svg>