<svg id="Layer_1" enable-background="new 0 0 32 32" viewBox="0 0 32 32" xmlns="http://www.w3.org/2000/svg"><path d="m16 25.5c5.238 0 9.5-4.262 9.5-9.5s-4.262-9.5-9.5-9.5-9.5 4.262-9.5 9.5 4.262 9.5 9.5 9.5zm0-2c-.413 0-.75-.336-.75-.75s.337-.75.75-.75.75.336.75.75-.337.75-.75.75zm0-15c3.032 0 5.5 2.467 5.5 5.5s-2.468 5.5-5.5 5.5c-.97 0-1.896-.259-2.722-.734l-.857 4.734h-1.033l2.12-11.589h1.027l-1.064 5.798c.747.511 1.614.791 2.529.791 2.481 0 4.5-2.019 4.5-4.5s-2.019-4.5-4.5-4.5-4.5 2.019-4.5 4.5h-1c0-3.033 2.468-5.5 5.5-5.5z" fill="#f9eb41"/><path d="m16 28.5c6.893 0 12.5-5.607 12.5-12.5s-5.607-12.5-12.5-12.5-12.5 5.607-12.5 12.5 5.607 12.5 12.5 12.5zm0-23c5.79 0 10.5 4.71 10.5 10.5s-4.71 10.5-10.5 10.5-10.5-4.71-10.5-10.5 4.71-10.5 10.5-10.5z" fill="#c99b1b"/><g fill="#3a2d0f"><path d="m16 29.5c7.444 0 13.5-6.056 13.5-13.5s-6.056-13.5-13.5-13.5-13.5 6.056-13.5 13.5 6.056 13.5 13.5 13.5zm0-26c6.893 0 12.5 5.607 12.5 12.5s-5.607 12.5-12.5 12.5-12.5-5.607-12.5-12.5 5.607-12.5 12.5-12.5z"/><path d="m16 26.5c5.79 0 10.5-4.71 10.5-10.5s-4.71-10.5-10.5-10.5-10.5 4.71-10.5 10.5 4.71 10.5 10.5 10.5zm0-20c5.238 0 9.5 4.262 9.5 9.5s-4.262 9.5-9.5 9.5-9.5-4.262-9.5-9.5 4.262-9.5 9.5-9.5z"/><path d="m16 9.5c2.481 0 4.5 2.019 4.5 4.5s-2.019 4.5-4.5 4.5c-.915 0-1.782-.28-2.529-.792l1.064-5.798h-1.027l-2.12 11.59h1.033l.857-4.734c.826.475 1.752.734 2.722.734 3.032 0 5.5-2.467 5.5-5.5s-2.468-5.5-5.5-5.5-5.5 2.467-5.5 5.5h1c0-2.481 2.019-4.5 4.5-4.5z"/><circle cx="16" cy="22.75" r=".75"/></g></svg>