<svg enable-background="new 0 0 32 32" height="32" viewBox="0 0 32 32" width="32" xmlns="http://www.w3.org/2000/svg"><g id="Litecoin_LTC"><g><g><g><g><circle cx="16" cy="16" fill="#fff" r="13.5"/></g><g><circle cx="16.5" cy="16.5" fill="#fff5a2" r="13"/></g><g><path d="m16 30c-3.739 0-7.255-1.456-9.899-4.101s-4.101-6.16-4.101-9.899 1.456-7.255 4.101-9.899c.195-.195.512-.195.707 0s.195.512 0 .707c-2.455 2.456-3.808 5.719-3.808 9.192s1.353 6.736 3.808 9.192c2.456 2.455 5.719 3.808 9.192 3.808s6.736-1.353 9.192-3.808c2.455-2.456 3.808-5.719 3.808-9.192s-1.353-6.736-3.808-9.192c-4.401-4.402-11.33-5.066-16.474-1.58-.227.153-.538.094-.694-.134-.154-.229-.094-.539.134-.695 5.54-3.755 13.001-3.038 17.741 1.701 2.645 2.645 4.101 6.161 4.101 9.9s-1.456 7.255-4.101 9.899-6.16 4.101-9.899 4.101z" fill="#455a64"/></g><g><circle cx="16" cy="16" fill="#fff176" r="10.5"/><path d="m16 27c-6.065 0-11-4.935-11-11s4.935-11 11-11 11 4.935 11 11-4.935 11-11 11zm0-21c-5.514 0-10 4.486-10 10s4.486 10 10 10 10-4.486 10-10-4.486-10-10-10z" fill="#455a64"/></g><g><path d="m7 17c0-5.521 4.478-10 10-10 2.506 0 4.791.929 6.547 2.453-1.834-2.111-4.531-3.453-7.547-3.453-5.522 0-10 4.479-10 10 0 3.016 1.342 5.714 3.453 7.547-1.523-1.755-2.453-4.04-2.453-6.547z" fill="#e6d96a"/></g></g></g></g><g><g><path d="m12.609 15.719c-.043 0-.087-.006-.13-.018-.267-.071-.425-.346-.353-.612l1.813-6.719c.059-.219.257-.37.483-.37h3.869c.156 0 .304.073.397.197.095.124.126.285.085.436l-1.296 4.692 1.169-.553c.25-.115.549-.012.666.238.118.25.011.548-.238.666l-2.155 1.018c-.177.084-.387.057-.536-.069s-.212-.327-.16-.516l1.411-5.109h-2.829l-1.713 6.349c-.06.223-.262.37-.483.37z" fill="#455a64"/></g><g><path d="m20.943 22h-10.16c-.156 0-.303-.073-.397-.197s-.126-.285-.085-.436l.96-3.496-.725.323c-.253.115-.548 0-.66-.252-.113-.252 0-.548.252-.66l1.691-.756c.176-.079.384-.05.529.076.147.126.208.326.157.513l-1.066 3.885h9.132l.299-1h-5.603c-.155 0-.301-.072-.396-.194-.095-.123-.127-.282-.088-.433l.904-3.453c.069-.268.339-.431.61-.356.267.069.427.343.356.61l-.738 2.826h5.626c.158 0 .307.074.401.201s.123.291.078.442l-.598 2c-.063.211-.258.357-.479.357z" fill="#455a64"/></g></g></g></svg>