<svg id="Layer_1" height="512" viewBox="0 0 512 512" width="512" xmlns="http://www.w3.org/2000/svg" data-name="Layer 1"><path d="m256 15.777-208.04 120.107v240.233l208.04 120.107 208.04-120.107v-240.233zm-159.42 329.383v-178.32a5.015 5.015 0 0 1 2.5-4.33l154.426-89.153a4.985 4.985 0 0 1 4.994 0l154.42 89.15a5.015 5.015 0 0 1 2.5 4.33v178.323a5.013 5.013 0 0 1 -2.5 4.33l-154.41 89.144a5 5 0 0 1 -5.01.006l-154.419-89.149a5.015 5.015 0 0 1 -2.501-4.331z" fill="#989999"/><path d="m251 69.03-154.422 89.154a10 10 0 0 0 -5 8.661v178.31a10 10 0 0 0 5 8.661l154.422 89.155a10 10 0 0 0 10 0l154.422-89.155a10 10 0 0 0 5-8.661v-178.31a10 10 0 0 0 -5-8.661l-154.422-89.154a10 10 0 0 0 -10 0zm149.422 103.588v166.764l-144.422 83.382-144.422-83.382v-166.764l144.422-83.381zm73.62-48.278-213.042-123a10 10 0 0 0 -10 0l-213.042 123a10 10 0 0 0 -5 8.66v246a10 10 0 0 0 5 8.66l213.042 123a10 10 0 0 0 10 0l213.042-123a10 10 0 0 0 5-8.66v-246a10 10 0 0 0 -5-8.66zm-15 248.887-203.042 117.226-203.042-117.226v-234.453l203.042-117.227 203.042 117.227z" fill="#403f3e"/></svg>