<svg viewBox="0 0 64.01 64.01" xmlns="http://www.w3.org/2000/svg"><g id="Layer_2" data-name="Layer 2"><g id="Layer_1-2" data-name="Layer 1"><g id="Shiba_Inu_SHIB" data-name="Shiba Inu SHIB"><path d="m63.05 39.75a32 32 0 1 1 -23.31-38.75 32 32 0 0 1 23.31 38.75z" fill="#f00500"/><g opacity=".24"><path d="m32 64a32.21 32.21 0 0 1 -7.74-1 32 32 0 0 1 -23.26-38.73 32 32 0 0 1 58.47-8.74 32 32 0 0 1 -27.47 48.47zm0-58a26 26 0 0 0 -25.21 19.72 26 26 0 0 0 50.44 12.57 26 26 0 0 0 -18.94-31.51 26.31 26.31 0 0 0 -6.29-.78z" fill="#fff"/></g><g opacity=".3" isolation="isolate"><path d="m62.09 21.13-61.68 16.01a32 32 0 0 1 61.68-16z" fill="#fff"/></g><path d="m57.22 38.3a26 26 0 1 1 -18.93-31.52 26 26 0 0 1 18.93 31.52z" fill="#f00500"/><path d="m40.79 17.26a21.93 21.93 0 0 0 -2.6 3.09l-.25-.08a17.46 17.46 0 0 0 -4.35-.85c-.45 0-2.11 0-2.65 0a15.7 15.7 0 0 0 -4.32.85l-.16.06a23 23 0 0 0 -2.68-3.06 18.64 18.64 0 0 1 16.78-.12zm8.82 21.62a17.7 17.7 0 0 1 -3.19 5.6 20 20 0 0 1 -2.5 2.45 18.42 18.42 0 0 1 -7.2 3.55 18.91 18.91 0 0 1 -8.85 0 18.42 18.42 0 0 1 -7.2-3.55 19.87 19.87 0 0 1 -2.49-2.45 17.58 17.58 0 0 1 -3.18-17.14 19.05 19.05 0 0 1 1.46-3.14c.27-.46.6-1 .76-1.18.41 1.74.9 3.47 1.47 5.17a.83.83 0 0 1 -.07.13 20.76 20.76 0 0 0 -2.21 8s0 .07 0 .11a5.33 5.33 0 0 0 .11 1.74 11.25 11.25 0 0 0 3.81 5.17c3.38 2.87 8 4.95 11.44 5.18 3.62.25 9-1.87 12.52-5a17.89 17.89 0 0 0 1.54-1.52 9 9 0 0 0 .84-1.12s0 0 0 0a.83.83 0 0 1 .07-.13c.09-.13.43-.74.48-.84a7.78 7.78 0 0 0 .62-2 5.77 5.77 0 0 0 .06-1 1.23 1.23 0 0 1 0-.13c0-.11 0-.28 0-.46s0-.52-.06-.79a16.54 16.54 0 0 0 -2.16-6.94l.05-.59s0 0 0-.05c.17-.53.9-2.74 1.47-5.28l.09.11c.15.2.54.8.72 1.08a17.89 17.89 0 0 1 1.87 4.19 17.71 17.71 0 0 1 -.26 10.8z" fill="#f00500"/><path d="m42.21 32.07a1.93 1.93 0 0 1 -.55.57 9.57 9.57 0 0 1 -3.66 1.36 4.44 4.44 0 0 1 -1.87.06c-.13-.06-.13-.15-.13-.35a2.8 2.8 0 0 1 1.11-1.34c.31-.22 1.56-1 2.14-1.3a7.8 7.8 0 0 1 2.26-.91 1.21 1.21 0 0 1 .43 0c.1 0 .21.34.26.71a9.48 9.48 0 0 1 .01 1.2zm-13.43 1.93c0 .07-.2.14-.4.17a6.27 6.27 0 0 1 -1.12 0 11.75 11.75 0 0 1 -3.43-1 4.23 4.23 0 0 1 -1.18-.79l-.16-.16v-.22a5.55 5.55 0 0 1 0-1.18 1.43 1.43 0 0 1 .18-.5c0-.06 0-.06.25-.06a2.41 2.41 0 0 1 .8.15 16.36 16.36 0 0 1 3 1.5 5.33 5.33 0 0 1 1.74 1.36 1.17 1.17 0 0 1 .29.75zm8.07 7.94-.15.61c-.09.33-.15.59-.15.6h-.37l-.25.6c-.14.32-.26.62-.28.67v.08l-.12-.19-.12-.2v-1.62h-.05c-.1 0-.79.12-1.09.15a15.6 15.6 0 0 1 -3.74-.08h-.38s0 .37 0 .82v.81l-.1.15-.1.15s-.07-.07-.21-.33a4.54 4.54 0 0 1 -.32-.87v-.16h-.42v-.21c0-.12 0-.25-.07-.38v-.19l-.15-.13-.21-.22a.11.11 0 0 1 0-.09v-.07h1.43v.16h.25.95.72l.18-.28.19-.29h.24v-1.09l-.31-.14a3 3 0 0 1 -1.82-1.57c-.05-.12-.05-.17-.06-.74a2.22 2.22 0 0 1 0-.74.86.86 0 0 1 .59-.58 12.91 12.91 0 0 1 1.7 0h1.59l.17.08a1.07 1.07 0 0 1 .43.34.91.91 0 0 1 .18.67 5 5 0 0 1 -.09 1.1 2.34 2.34 0 0 1 -.33.65 3 3 0 0 1 -1.28.9l-.13.05v1.2h.25l.17.25.16.26h1.6c.05 0 .06 0 .12-.09l.07-.1h.65a3.06 3.06 0 0 1 .64 0z"/><path d="m33.84 43.53c-.11.06-.18.09-.2.08l-.18-.14-.15-.12-.16.17c-.35.38-.36.39-.46.4s-.2 0-.39-.3l-.18-.28h-.12-.16l-.08.15-.07.16h-.13l-.31-.12-.25-.16v-.32h3v.15c0 .18 0 .18-.24.32z"/><path d="m48.09 36.58a.72.72 0 0 0 0-.13 12.13 12.13 0 0 0 -8.9 2.75s-1.19-5.36-6.65-5.36-7.54 5.36-7.54 5.36a9.83 9.83 0 0 0 -8.65-2.84s0 .07 0 .11a5.06 5.06 0 0 0 .11 1.74 11.25 11.25 0 0 0 3.81 5.17c3.38 2.87 8 4.95 11.44 5.18 3.62.25 9-1.87 12.52-5a19.38 19.38 0 0 0 1.6-1.56 9 9 0 0 0 .84-1.12s0 0 0 0a0 0 0 0 1 0 0s0 0 0 0a.83.83 0 0 1 .07-.13c.09-.13.43-.74.48-.84a7.78 7.78 0 0 0 .62-2 5.44 5.44 0 0 0 .25-1.33zm-14.25 7c-.11.06-.18.09-.2.08a.86.86 0 0 1 -.18-.14l-.16-.12-.16.17c-.34.38-.35.39-.46.4s-.19 0-.38-.3-.19-.28-.19-.28h-.11-.16l-.07.15-.07.16h-.13l-.31-.12-.26-.21v-.32h3v.15c.09.19.09.19-.16.33zm2.85-1-.15.6h-.37l-.24.6c-.14.32-.26.62-.28.67v.08l-.12-.19-.12-.2v-1.65c-.36.06-.73.11-1.09.15a15.69 15.69 0 0 1 -3.75-.08h-.37s0 .37 0 .82v.81l-.1.15-.1.15s-.08-.07-.21-.33a4 4 0 0 1 -.32-.87v-.16h-.47v-.23l-.06-.38v-.19l-.14-.13-.23-.2a.11.11 0 0 1 0-.09v-.07h1.43v.16h.24 1 .71l.19-.28.18-.29h.24v-1.09l-.31-.14a3.07 3.07 0 0 1 -1.83-1.57 2.44 2.44 0 0 1 -.05-.74 2.22 2.22 0 0 1 0-.74.84.84 0 0 1 .59-.58 12.91 12.91 0 0 1 1.7 0h1.58l.18.08a1.07 1.07 0 0 1 .43.34 1 1 0 0 1 .17.67 5.24 5.24 0 0 1 -.08 1.1 2.65 2.65 0 0 1 -.33.65 3.1 3.1 0 0 1 -1.28.9l-.14.05v1.2h.25l.17.26.16.25h1.59c.06 0 .07 0 .13-.09l.07-.1h.65a2.74 2.74 0 0 1 .66 0 4.6 4.6 0 0 0 -.18.59z" fill="#fff"/><path d="m48.05 36c0-.26 0-.52 0-.79a16.83 16.83 0 0 0 -2.16-6.94c-.05-.08-.09-.16-.13-.24a.17.17 0 0 1 0-.05c.18-.53.9-2.74 1.48-5.28.78-3.44 1.27-7.47-.24-8.68 0 0-2.63-.19-6.14 3.25a23.37 23.37 0 0 0 -2.6 3.09l-.26-.09a17.54 17.54 0 0 0 -4.36-.85c-.44 0-2.1 0-2.64 0a15.7 15.7 0 0 0 -4.32.85l-.16.06a23 23 0 0 0 -2.68-3.06c-3.71-3.46-6.43-3.27-6.43-3.27-1.61 1.24-1.06 5.45-.23 9 .42 1.74.91 3.47 1.47 5.17a.75.75 0 0 1 -.06.13 20.78 20.78 0 0 0 -2.22 8 9.85 9.85 0 0 1 8.63 2.9s2-5.36 7.51-5.36 6.64 5.36 6.64 5.36a12.16 12.16 0 0 1 8.9-2.75zm-28.32-10s-2.13-5.33-1.58-8.37a2.88 2.88 0 0 1 .53-1.31s2.42.24 6.31 4.57a11 11 0 0 0 -1.73 1.13 13.74 13.74 0 0 0 -3.52 4zm9.05 8a.65.65 0 0 1 -.4.17 6.27 6.27 0 0 1 -1.12 0 12.06 12.06 0 0 1 -3.43-1 4.47 4.47 0 0 1 -1.18-.8l-.16-.16v-.22a6.19 6.19 0 0 1 0-1.18 1.64 1.64 0 0 1 .17-.5c0-.06 0-.06.25-.06a2.42 2.42 0 0 1 .81.15 16 16 0 0 1 3 1.5 5.29 5.29 0 0 1 1.75 1.36 1.17 1.17 0 0 1 .29.75zm13.43-1.89a1.93 1.93 0 0 1 -.55.57 9.57 9.57 0 0 1 -3.66 1.32 4.62 4.62 0 0 1 -1.87.06c-.13-.06-.13-.15-.13-.35a2.8 2.8 0 0 1 1.11-1.34c.31-.22 1.56-1 2.14-1.3a7.8 7.8 0 0 1 2.26-.91 1.21 1.21 0 0 1 .43 0c.1 0 .21.34.26.71a9.48 9.48 0 0 1 .01 1.2zm-1-10a10.54 10.54 0 0 0 -1.67-1.12c3.77-4.34 6.1-4.58 6.1-4.58a3.21 3.21 0 0 1 .51 1.31c.53 3-1.53 8.38-1.53 8.38a13.27 13.27 0 0 0 -3.36-4.04z" fill="#ffa409"/><path d="m46.2 17.66c-.45-.06-2.55-.07-4.94 4.4a11.1 11.1 0 0 0 -1.67-1.12c3.77-4.34 6.1-4.57 6.1-4.57a3.12 3.12 0 0 1 .52 1.3z" fill="#ff9300"/><path d="m44.67 26a13.41 13.41 0 0 0 -3.4-4c2.38-4.47 4.48-4.46 4.93-4.4.53 3.05-1.53 8.38-1.53 8.38zm1.61-8.36h-.08z" fill="#ff8300"/><path d="m25 20.93a11.29 11.29 0 0 0 -1.73 1.12c-2.47-4.47-4.64-4.46-5.11-4.4a2.88 2.88 0 0 1 .53-1.3s2.43.23 6.32 4.57z" fill="#ff9300"/><path d="m23.26 22.06a13.62 13.62 0 0 0 -3.53 4s-2.13-5.33-1.58-8.38c.46-.06 2.64-.07 5.11 4.4z" fill="#ff8300"/><path d="m18.15 17.66h-.09z" fill="#ff8300"/><path d="m38.9 29s-1.82.11-1.6-1.31a1.88 1.88 0 0 1 2.06-1.54c.4.06 2 .63 1.71 1.82s-.69 1-.92 1a8.54 8.54 0 0 1 -1.25 0zm-13.46 0s-1.82.11-1.59-1.31a1.87 1.87 0 0 1 2-1.54c.4.06 2 .63 1.71 1.82s-.68 1-.91 1a8.67 8.67 0 0 1 -1.21.03z" fill="#fff"/></g></g></g></svg>