<svg clip-rule="evenodd" fill-rule="evenodd" height="2in" image-rendering="optimizeQuality" shape-rendering="geometricPrecision" text-rendering="geometricPrecision" viewBox="0 0 2000 2000" width="2in" xmlns="http://www.w3.org/2000/svg"><g id="Layer_x0020_1"><path d="m1000 1853c-471 0-853-382-853-853s382-853 853-853 853 382 853 853-382 853-853 853z" fill="#99f"/><path d="m1000 1736c-406 0-736-330-736-736s330-736 736-736 736 330 736 736-330 736-736 736z" fill="#7c7ccf"/><path d="m1000 304c-384 0-696 312-696 696s312 696 696 696 696-312 696-696-312-696-696-696z" fill="#444486"/><path d="m1000 1636c-351 0-636-285-636-636 0-11 9-20 20-20s20 9 20 20c0 329 267 596 596 596 11 0 20 9 20 20s-9 20-20 20zm616-616c-11 0-20-9-20-20 0-329-267-596-596-596-11 0-20-9-20-20s9-20 20-20c351 0 636 285 636 636 0 11-9 20-20 20z" fill="#68689d"/><path d="m1213 827h-562c-8 0-15-4-18-11s-2-15 3-21l135-161c4-4 10-7 16-7h562c8 0 15 5 18 12 4 7 2 15-3 21l-135 160c-4 5-10 7-16 7zm136 273h-562c-6 0-12-3-16-7l-135-160c-5-6-6-15-3-22s10-11 18-11h562c6 0 12 2 16 7l135 160c5 6 6 15 3 22s-10 11-18 11zm-136 273h-562c-8 0-15-5-18-12s-2-15 3-21l135-160c4-5 10-8 16-8h562c8 0 15 5 18 12 4 7 2 15-3 21l-135 161c-4 4-10 7-16 7z" fill="#fff"/><path d="m1000 1853c471 0 853-382 853-853s-382-853-853-853c-77 0-152 10-224 29 30-3 60-5 91-5 171 0 327 61 449 164 248 118 420 372 420 665 0 406-330 736-736 736-293 0-547-172-665-420-103-122-164-278-164-449 0-31 2-61 5-91-19 72-29 147-29 224 0 471 382 853 853 853z" fill="#8a8ae6"/><path d="m1000 1696c384 0 696-312 696-696 0-226-108-427-275-554 45 59 80 125 105 196 69 102 110 225 110 358 0 11-9 20-20 20s-20-9-20-20c0-73-13-143-37-208 2 25 4 50 4 75 0 384-312 696-696 696-25 0-50-2-75-4 65 24 135 37 208 37 11 0 20 9 20 20s-9 20-20 20c-133 0-256-41-358-110-71-25-137-60-196-105 127 167 328 275 554 275z" fill="#37376d"/></g></svg>