<svg id="Layer_1" enable-background="new 0 0 512 512" viewBox="0 0 512 512" xmlns="http://www.w3.org/2000/svg"><g><g><circle cx="256" cy="256" fill="#fff259" r="248.2"/><path d="m450.1 256c0 107.2-86.9 194.1-194.1 194.1s-194.1-86.9-194.1-194.1 86.9-194.1 194.1-194.1 194.1 86.9 194.1 194.1z" fill="#ffc738"/><g fill="#fff7c5"><g><path d="m88.9 354.8-39.2 39.2c-7-10.5-13.3-21.5-18.7-33l41.5-41.5c4.3 12.4 9.8 24.2 16.4 35.3z"/><path d="m130 403.7-38.4 38.4c-6.5-5.7-12.6-11.8-18.4-18.1l38.3-38.3c5.8 6.4 12 12.4 18.5 18z"/><path d="m192.5 439.5-41.5 41.5c-4.6-2.2-9.1-4.4-13.6-6.9l40.4-40.4c4.8 2.1 9.7 4.1 14.7 5.8z"/></g><g><path d="m393.7 49.4-39.9 38.9c-11.2-6.5-23-12-35.5-16.2l42.3-41.3c11.6 5.4 22.6 11.6 33.1 18.6z"/><path d="m442.1 91.7-38.4 38.3c-5.6-6.6-11.6-12.7-18-18.5l38.3-38.3c6.3 5.8 12.3 12 18.1 18.5z"/><path d="m481 151-41.5 41.5c-1.7-5-3.6-9.9-5.8-14.7l40.4-40.4c2.4 4.4 4.7 9 6.9 13.6z"/></g></g><path d="m256 61.9c-107.2 0-194.1 86.9-194.1 194.1 0 60.4 27.6 114.4 70.9 150-27.5-33.5-44.1-76.4-44.1-123.2 0-107.2 86.9-194.1 194.1-194.1 46.8 0 89.7 16.5 123.2 44.1-35.6-43.3-89.6-70.9-150-70.9z" fill="#ff9f39"/></g><g><path d="m437 75c-48.3-48.4-112.6-75-181-75s-132.7 26.6-181 75c-48.4 48.3-75 112.6-75 181s26.6 132.7 75 181c48.4 48.4 112.6 75 181 75s132.7-26.6 181-75c48.4-48.4 75-112.6 75-181s-26.6-132.7-75-181zm-181 421.5c-132.6 0-240.5-107.9-240.5-240.5s107.9-240.5 240.5-240.5 240.5 107.9 240.5 240.5-107.9 240.5-240.5 240.5z"/><path d="m256 54.1c-111.3 0-201.9 90.6-201.9 201.9s90.6 201.9 201.9 201.9 201.9-90.6 201.9-201.9-90.6-201.9-201.9-201.9zm0 388.3c-102.8 0-186.4-83.6-186.4-186.4s83.6-186.4 186.4-186.4 186.4 83.6 186.4 186.4-83.6 186.4-186.4 186.4z"/><path d="m346.2 162.2h-180.4c-4.4 0-8 3.6-8 8s3.6 8 8 8h82.2v67.3l-42.5 17.2c-4.1 1.7-6.1 6.3-4.4 10.4 1.3 3.1 4.3 5 7.4 5 1 0 2-.2 3-.6l36.5-14.8v56.5l-42.5 17.2c-4.1 1.7-6.1 6.3-4.4 10.4 1.3 3.1 4.3 5 7.4 5 1 0 2-.2 3-.6l36.5-14.8v45.4c0 4.4 3.6 8 8 8s8-3.6 8-8v-51.8l42.5-17.2c4.1-1.7 6.1-6.3 4.4-10.4s-6.3-6.1-10.4-4.4l-36.5 14.7v-56.5l42.5-17.2c4.1-1.7 6.1-6.3 4.4-10.4s-6.3-6.1-10.4-4.4l-36.5 14.7v-60.8h82.2c4.4 0 8-3.6 8-8s-3.6-7.9-8-7.9z"/></g></g></svg>