<svg clip-rule="evenodd" fill-rule="evenodd" height="2in" image-rendering="optimizeQuality" shape-rendering="geometricPrecision" text-rendering="geometricPrecision" viewBox="0 0 2000 2000" width="2in" xmlns="http://www.w3.org/2000/svg"><g id="Layer_x0020_1"><path d="m1000 1853c-471 0-853-382-853-853s382-853 853-853 853 382 853 853-382 853-853 853z" fill="#ec3535"/><path d="m1000 1736c-406 0-736-330-736-736s330-736 736-736 736 330 736 736-330 736-736 736z" fill="#bf2b2b"/><path d="m1000 304c-384 0-696 312-696 696s312 696 696 696 696-312 696-696-312-696-696-696z" fill="#812929"/><path d="m1000 1636c-351 0-636-285-636-636 0-11 9-20 20-20s20 9 20 20c0 329 267 596 596 596 11 0 20 9 20 20s-9 20-20 20zm616-616c-11 0-20-9-20-20 0-329-267-596-596-596-11 0-20-9-20-20s9-20 20-20c351 0 636 285 636 636 0 11-9 20-20 20z" fill="#995151"/><path d="m957 1499h-1c-1 0-2 0-3 0-3 0-6-2-8-3v-1h-1c-3-2-5-6-7-10l-341-822c-3-7-3-15 2-21l1-1v-1h1v-1c1 0 1 0 2-1h1v-1h1c4-3 8-4 13-3l656 97c2 0 3 1 5 2h1 1c1 1 3 2 4 3l1 1 181 169c1 2 2 3 4 5v1c4 7 3 16-3 23l-495 558c-3 3-6 5-10 6h-1-1-1-1zm-10-94 63-417-348-272zm143-454 318-44-137-128zm312-2-353 48-63 419zm-716-264 344 268 197-188z" fill="#fff"/><path d="m1000 1696c384 0 696-312 696-696 0-226-108-427-275-554 45 59 80 125 105 196 69 102 110 225 110 358 0 11-9 20-20 20s-20-9-20-20c0-73-13-143-37-208 2 25 4 50 4 75 0 384-312 696-696 696-25 0-50-2-75-4 65 24 135 37 208 37 11 0 20 9 20 20s-9 20-20 20c-133 0-256-41-358-110-71-25-137-60-196-105 127 167 328 275 554 275z" fill="#742525"/><path d="m1000 1853c471 0 853-382 853-853s-382-853-853-853c-77 0-152 10-224 29 30-3 60-5 91-5 171 0 327 61 449 164 248 118 420 372 420 665 0 406-330 736-736 736-293 0-547-172-665-420-103-122-164-278-164-449 0-31 2-61 5-91-19 72-29 147-29 224 0 471 382 853 853 853z" fill="#d43030"/></g></svg>