<svg id="Layer_1" enable-background="new 0 0 24 24" viewBox="0 0 24 24" xmlns="http://www.w3.org/2000/svg"><g fill="#5c6671"><path d="m12 3.5c-4.687 0-8.5 3.813-8.5 8.5s3.813 8.5 8.5 8.5 8.5-3.813 8.5-8.5-3.813-8.5-8.5-8.5zm.498 13.956.002.543c.001.276-.223.5-.498.501-.001 0-.002 0-.002 0-.275 0-.499-.223-.5-.499l-.002-.544c-1.611-.199-2.89-1.335-2.999-2.761-.021-.275.186-.516.461-.537.251-.022.516.184.537.46.08 1.054 1.178 1.879 2.499 1.879 1.38 0 2.502-.897 2.502-1.999 0-1.309-1.309-1.745-2.448-1.979l-.294-.062c-2.162-.44-3.258-1.436-3.258-2.959 0-1.507 1.309-2.747 3.002-2.957v-.542c0-.276.224-.5.5-.5s.5.224.5.5v.541c1.611.2 2.889 1.335 2.997 2.761.021.275-.186.515-.461.536-.288.021-.516-.186-.537-.461-.079-1.053-1.177-1.877-2.498-1.877-1.38 0-2.503.897-2.503 2 0 1.326 1.402 1.765 2.457 1.979l.296.063c2.154.442 3.247 1.438 3.247 2.958 0 1.507-1.308 2.745-3 2.956z"/><path d="m12 .5c-6.341 0-11.5 5.159-11.5 11.5s5.159 11.5 11.5 11.5 11.5-5.159 11.5-11.5-5.159-11.5-11.5-11.5zm0 21c-5.238 0-9.5-4.262-9.5-9.5s4.262-9.5 9.5-9.5 9.5 4.262 9.5 9.5-4.262 9.5-9.5 9.5z"/></g><g/><g/><g/><g/><g/><g/><g/><g/><g/><g/><g/><g/><g/><g/><g/></svg>