<svg id="Layer_1" enable-background="new 0 0 480.053 480.053" height="512" viewBox="0 0 480.053 480.053" width="512" xmlns="http://www.w3.org/2000/svg"><circle cx="240.026" cy="240.053" fill="#befa91" r="232"/><path d="m34.026 256.053c0 28.943 5.3 56.649 14.982 82.198 3.875 10.226-10.886 16.684-15.848 6.94-15.752-30.933-24.77-65.871-25.123-102.881-1.236-129.705 102.942-234.619 232.653-234.256 10.962.031 11.844 16.068.949 17.271-110.877 12.248-207.613 104.281-207.613 230.728z" fill="#daffbf"/><circle cx="240.026" cy="240.053" fill="#daffbf" r="190"/><path d="m69.189 323.298c-13.028-26.683-19.989-56.871-19.084-88.766 2.936-103.544 89.512-186.515 193.773-184.441 12.036.239 13.054 17.79 1.12 19.373-111.852 14.831-190.35 138.453-157.76 246.772 3.416 11.354-12.847 17.717-18.049 7.062z" fill="#e9ffd9"/><path d="m141.026 141.053v40c0 4.418 3.582 8 8 8h55c4.418 0 8 3.582 8 8v178c0 4.418 3.582 8 8 8h40c4.418 0 8-3.582 8-8v-178c0-4.418 3.582-8 8-8h55c4.418 0 8-3.582 8-8v-40c0-4.418-3.582-8-8-8h-182c-4.418 0-8 3.582-8 8z" fill="#befa91"/><g><path d="m144.042 230.544c-25.635 9.992-31.016 22.106-31.016 30.509 0 24.995 45.834 38.771 98.037 43.905 1.169.115 17.412 1.095 28.963 1.095 6.684 0 13.376-.175 20-.52v69.52h-40v-43.032c0-4.418-3.582-8-8-8s-8 3.582-8 8v51.032c0 4.418 3.582 8 8 8h56c4.418 0 8-3.582 8-8v-78.704c49.299-4.757 91-19.429 91-43.296 0-16.047-18.201-28.884-52.635-37.122-4.293-1.029-8.614 1.622-9.642 5.919s1.622 8.614 5.919 9.642c29.61 7.084 40.357 16.776 40.357 21.562 0 3.504-6.156 11.35-29.229 18.524-13.013 4.046-28.661 6.993-45.771 8.715v-91.239h63c4.418 0 8-3.582 8-8v-56c0-4.418-3.582-8-8-8h-198c-4.418 0-8 3.582-8 8v56c0 4.418 3.582 8 8 8h63v20.696c-23.345 2.256-44.434 6.733-59.983 12.794zm-15.016 30.509c0-3.452 5.454-9.61 20.826-15.602 13.893-5.415 32.895-9.476 54.174-11.631v54.471c-17.11-1.721-32.757-4.669-45.771-8.715-23.072-7.174-29.229-15.019-29.229-18.523zm20-80v-40h182v40h-63c-4.418 0-8 3.582-8 8v100.463c-13.289.709-26.444.723-40 0v-100.463c0-4.418-3.582-8-8-8z"/><path d="m330.99 17.893c-4.088-1.676-8.76.281-10.437 4.368-1.676 4.088.28 8.761 4.368 10.437 84.503 34.635 139.105 116.026 139.105 207.355 0 123.514-100.486 224-224 224s-224-100.486-224-224c0-138.195 123.913-243.361 260.399-221.059 4.361.709 8.473-2.246 9.186-6.606.712-4.36-2.245-8.473-6.605-9.185-146.118-23.87-278.98 88.687-278.98 236.85 0 132.64 107.341 240 240 240 133.423 0 240-108.211 240-240 0-98.965-60.224-185.759-149.036-222.16z"/><path d="m82.615 331.49c-2.223-3.818-7.12-5.111-10.939-2.887-3.818 2.223-5.111 7.121-2.887 10.939 66.605 114.375 224.81 132.757 315.634 35.986 74.832-79.73 70.852-204.788-8.716-279.68-83.984-79.048-218.992-70.45-291.514 22.132-37.825 48.288-51.097 110.132-36.412 169.674 1.058 4.29 5.394 6.909 9.683 5.852 4.29-1.058 6.91-5.393 5.852-9.683-28.318-114.814 58.556-225.77 176.71-225.77 95.703 0 175.48 74.728 181.619 170.118 6.729 106.041-77.064 193.882-181.619 193.882-64.564 0-124.881-34.702-157.411-90.563z"/></g></svg>