<svg id="Layer_1" enable-background="new 0 0 512 512" height="512" viewBox="0 0 512 512" width="512" xmlns="http://www.w3.org/2000/svg"><g clip-rule="evenodd" fill-rule="evenodd"><path d="m256.004 53.836c-55.818 0-106.36 22.633-142.948 59.217-36.583 36.587-59.221 87.129-59.221 142.947s22.638 106.36 59.221 142.943c36.588 36.588 87.13 59.221 142.948 59.221s106.355-22.633 142.943-59.221c36.587-36.583 59.217-87.125 59.217-142.943s-22.629-106.36-59.217-142.947c-36.587-36.584-87.125-59.217-142.943-59.217zm-107.722 98.905c-3.855-3.499-5.817-8.218-2.288-12.538 2.72-3.353 8.155-3.537 11.306-.667l89.124 80.92c2.573 2.338 6.072 3.482 9.521 3.482 3.445 0 6.94-1.145 9.513-3.482l89.125-80.92c3.185-2.896 8.297-2.648 11.188.528 2.892 3.181 2.653 8.297-.528 11.188l-89.125 80.92c-5.481 4.97-12.798 7.631-20.173 7.631-7.358 0-14.717-2.665-20.182-7.631l-57.938-52.608zm19.855 37.463-29.543-26.819c-10.083-9.148-12.287-24.447-1.903-34.216 8.314-7.841 21.724-8.066 30.298-.276l88.806 80.626h.302l88.802-80.626c9.001-8.188 23.329-7.51 31.517 1.487s7.518 23.325-1.483 31.518l-89.125 80.919c-8.121 7.371-18.916 11.402-29.862 11.402-10.895 0-21.787-4.057-29.87-11.402zm-21.368 170.388 88.995-80.798c5.481-4.979 12.798-7.636 20.182-7.636 7.35 0 14.709 2.674 20.173 7.636l89.125 80.915c1.601 1.454 2.46 3.449 2.556 5.485.092 2.032-.574 4.103-2.028 5.699-1.454 1.601-3.453 2.46-5.485 2.556-2.032.093-4.103-.573-5.703-2.027l-89.125-80.916c-2.573-2.338-6.068-3.486-9.513-3.486-3.449 0-6.948 1.148-9.521 3.486l-89.125 80.916c-3.067 2.795-7.836 2.656-10.829-.168-3.578-3.382-2.731-8.26.298-11.662zm79.306-91.442c8.125-7.376 18.917-11.411 29.87-11.411 10.929 0 21.757 4.052 29.862 11.411l89.125 80.914c4.526 4.12 6.957 9.735 7.225 15.451s-1.626 11.541-5.741 16.066c-4.119 4.525-9.739 6.956-15.455 7.225-5.708.268-11.532-1.617-16.063-5.741l-88.806-80.626h-.298l-88.806 80.626c-8.817 8.021-22.629 7.526-30.968-.905-9.404-9.504-7.3-24.619.847-32.016z"/><path d="m248.796 472.458c-56.933-1.86-108.317-25.704-145.932-63.319-39.193-39.194-63.444-93.34-63.444-153.139s24.25-113.945 63.444-153.139c37.615-37.615 88.999-61.459 145.932-63.319v-28.542c-64.811 1.873-123.328 28.915-166.104 71.688-44.357 44.361-71.801 105.639-71.801 173.312s27.444 128.951 71.801 173.309c42.777 42.776 101.293 69.818 166.104 71.691z"/><path d="m263.295 39.542c54.318 1.802 107.22 24.694 145.848 63.319 39.19 39.193 63.441 93.34 63.441 153.139s-24.25 113.945-63.441 153.139c-38.415 38.411-91.014 61.51-145.848 63.315l-.083 28.546c62.049-1.789 122.443-28.035 166.101-71.691 44.357-44.357 71.796-105.636 71.796-173.309s-27.439-128.951-71.796-173.313c-44.533-44.533-103.847-69.889-166.101-71.687v28.542z"/></g></svg>